<svg width="360" height="292" viewBox="0 0 360 292" fill="none" xmlns="http://www.w3.org/2000/svg">
<g filter="url(#filter0_d_6_27)">
<path d="M335.019 156.15L166.601 254.514C163.104 256.549 159.138 257.62 155.102 257.62C151.065 257.62 147.1 256.549 143.603 254.514L25.249 185.934C23.6536 185.008 22.3283 183.673 21.4068 182.065C20.4852 180.457 20 178.632 20 176.774C20 174.916 20.4852 173.091 21.4068 171.483C22.3283 169.875 23.6536 168.541 25.249 167.614L201.315 64.9802L334.856 139.889C336.291 140.688 337.489 141.858 338.329 143.278C339.169 144.698 339.62 146.318 339.637 147.972C339.653 149.625 339.234 151.254 338.423 152.691C337.612 154.128 336.437 155.321 335.019 156.15Z" fill="#FF8E31"/>
<path d="M149.027 143.119L102.076 171.666C102.076 171.666 161.741 206.18 184.989 220.12L233.719 192.263" fill="url(#paint0_linear_6_27)"/>
<path d="M105.265 174.918L58.3253 203.454C58.3253 203.454 72.8944 213.101 96.0878 226.986L145.783 196.183" fill="url(#paint1_linear_6_27)"/>
<path d="M112.967 140.502V143.733L114.595 145.747" fill="#ADCEE1"/>
<path d="M177.449 101.06L114.812 140.239C114.238 140.598 113.767 141.1 113.444 141.698C113.122 142.296 112.959 142.969 112.972 143.65C112.985 144.33 113.174 144.996 113.519 145.581C113.864 146.165 114.355 146.649 114.942 146.985L209.994 201.264C211.32 202.021 212.82 202.413 214.343 202.399C215.866 202.386 217.36 201.968 218.672 201.187L281.017 164.187C285.551 160.431 285.204 153.358 281.017 153.062L186.529 100.918C185.145 100.109 183.569 99.6957 181.969 99.7207C180.37 99.7458 178.808 100.209 177.449 101.06Z" fill="#88D3D8"/>
<path d="M177.449 98.3776L114.812 137.557C114.238 137.915 113.767 138.418 113.444 139.016C113.122 139.614 112.959 140.286 112.972 140.967C112.985 141.647 113.174 142.313 113.519 142.898C113.864 143.483 114.355 143.967 114.942 144.302L209.994 198.515C211.319 199.273 212.82 199.664 214.343 199.651C215.866 199.637 217.359 199.219 218.672 198.439L281.017 161.439C281.749 161.01 282.356 160.396 282.778 159.656C283.201 158.916 283.423 158.077 283.423 157.223C283.423 156.369 283.201 155.53 282.778 154.79C282.356 154.05 281.749 153.435 281.017 153.007L186.529 98.1586C185.138 97.3616 183.558 96.9609 181.959 96.9995C180.36 97.038 178.801 97.5144 177.449 98.3776Z" fill="white"/>
<path d="M179.998 93.0231C179.998 93.0231 206.034 8.29199 205.85 8.29199C205.665 8.29199 206.663 4.52519 211.274 6.64949L311.077 65.9547C311.077 65.9547 315.915 67.9367 314.972 72.5247C314.028 77.1128 289.543 155.438 289.543 155.438C289.032 156.183 288.299 156.744 287.45 157.039C286.602 157.335 285.682 157.349 284.825 157.081C281.787 156.128 182.287 97.7864 182.287 97.7864C181.375 97.4376 180.63 96.7498 180.205 95.8642C179.779 94.9785 179.705 93.962 179.998 93.0231Z" fill="#012032"/>
<path d="M207.499 14.4459L309.721 74.5942L288.513 146.437L184.989 88.0737L207.499 14.4459Z" fill="#0A297C"/>
<path d="M173.598 107.357L150.697 121.756C150.294 122.013 149.962 122.37 149.736 122.794C149.51 123.219 149.396 123.695 149.406 124.176C149.415 124.658 149.549 125.129 149.792 125.543C150.036 125.958 150.381 126.301 150.795 126.541L232.992 173.834C234.221 174.55 235.614 174.927 237.033 174.927C238.452 174.927 239.845 174.55 241.074 173.834C246.357 170.724 255.459 165.074 261.024 161.68C261.53 161.377 261.95 160.946 262.239 160.429C262.529 159.911 262.679 159.327 262.675 158.732C262.67 158.138 262.512 157.556 262.214 157.043C261.917 156.53 261.491 156.105 260.98 155.81C244.361 146.054 190.12 114.2 178.241 107.258C177.532 106.843 176.725 106.633 175.906 106.651C175.087 106.668 174.289 106.912 173.598 107.357Z" fill="#0A297C"/>
<path d="M174.824 146.437L203.539 162.742C203.979 162.994 204.345 163.36 204.599 163.801C204.854 164.243 204.988 164.744 204.988 165.255C204.988 165.765 204.854 166.267 204.599 166.708C204.345 167.15 203.979 167.515 203.539 167.768L186.703 177.71C186.123 178.05 185.464 178.229 184.793 178.229C184.123 178.229 183.464 178.05 182.884 177.71L153.496 160.847C153.129 160.636 152.823 160.33 152.611 159.961C152.398 159.591 152.286 159.172 152.286 158.745C152.286 158.318 152.398 157.898 152.611 157.529C152.823 157.16 153.129 156.854 153.496 156.643L171.06 146.459C171.631 146.126 172.279 145.95 172.939 145.946C173.599 145.942 174.248 146.111 174.824 146.437Z" fill="#0A297C"/>
<path opacity="0.1" d="M173.598 107.357L150.697 121.756C150.294 122.013 149.962 122.37 149.736 122.794C149.51 123.219 149.396 123.695 149.406 124.176C149.415 124.658 149.549 125.129 149.792 125.543C150.036 125.958 150.381 126.301 150.795 126.541L232.992 173.834C234.221 174.55 235.614 174.927 237.033 174.927C238.452 174.927 239.845 174.55 241.074 173.834C246.357 170.724 255.459 165.074 261.024 161.68C261.53 161.377 261.95 160.946 262.239 160.429C262.529 159.911 262.679 159.327 262.675 158.732C262.67 158.138 262.512 157.556 262.214 157.043C261.917 156.53 261.491 156.105 260.98 155.81C244.361 146.054 190.12 114.2 178.241 107.258C177.532 106.843 176.725 106.633 175.906 106.651C175.087 106.668 174.289 106.912 173.598 107.357Z" fill="#053855"/>
<path opacity="0.1" d="M174.824 146.437L203.539 162.742C203.979 162.994 204.345 163.36 204.599 163.801C204.854 164.243 204.988 164.744 204.988 165.255C204.988 165.765 204.854 166.267 204.599 166.708C204.345 167.15 203.979 167.515 203.539 167.768L186.703 177.71C186.123 178.05 185.464 178.229 184.793 178.229C184.123 178.229 183.464 178.05 182.884 177.71L153.496 160.847C153.129 160.636 152.823 160.33 152.611 159.961C152.398 159.591 152.286 159.172 152.286 158.745C152.286 158.318 152.398 157.898 152.611 157.529C152.823 157.16 153.129 156.854 153.496 156.643L171.06 146.459C171.631 146.126 172.279 145.95 172.939 145.946C173.599 145.942 174.248 146.111 174.824 146.437Z" fill="#053855"/>
<path d="M173.186 49.8801C172.309 49.237 171.38 48.6693 170.408 48.1829C167.555 46.7156 166.698 45.1169 167.859 42.0728C170.192 35.9298 161.643 24.4871 154.841 27.2136C150.502 28.9656 146.955 33.8931 145.534 38.2731C144.883 40.1623 144.793 42.202 145.273 44.1423C145.718 45.752 147.649 47.4273 145.816 48.7085C142.691 50.9861 137.875 51.8621 136.747 56.1545C136.579 56.7392 136.534 57.3528 136.614 57.9561C136.694 58.5594 136.898 59.1392 137.213 59.6585C137.67 60.2725 138.248 60.7842 138.911 61.1612C139.574 61.5381 140.307 61.7722 141.064 61.8485C143.722 62.2755 142.865 62.615 142.268 64.7393C140.598 70.6523 146.477 72.4043 151.12 73.0065C156.903 73.7183 164.041 74.3534 169.41 71.583C171.027 70.7508 172.556 69.393 172.665 67.4549C172.773 65.5167 169.671 63.5457 170.495 61.4543C170.744 60.9561 171.118 60.5331 171.58 60.2279C173.175 58.9029 175.312 57.8189 175.919 55.6617C176.44 53.1213 175.019 51.2598 173.186 49.8801Z" fill="#96D88D"/>
<path d="M173.186 49.891C172.309 49.2479 171.38 48.6802 170.409 48.1938C167.556 46.7265 166.699 45.1278 167.859 42.0837C169.02 39.0396 167.458 34.5829 164.746 31.287C164.935 32.213 164.964 33.165 164.833 34.1011C164.236 38.4811 156.013 44.6131 159.951 48.1938C162.403 50.3838 172.644 52.5738 166.905 57.6217C164.996 59.2971 162.012 59.4942 163.401 62.8339C163.997 64.2684 165.722 65.1006 166.427 66.5131C167.415 68.4951 167.317 70.0062 165.614 71.5392C164.063 72.7734 162.163 73.4789 160.19 73.554C163.384 73.5745 166.543 72.871 169.432 71.4954C171.049 70.6632 172.578 69.3054 172.687 67.3673C172.795 65.4291 169.693 63.4581 170.517 61.3666C170.766 60.8685 171.14 60.4454 171.602 60.1402C173.197 58.8153 175.334 57.7312 175.941 55.5741C176.44 53.1322 175.019 51.2707 173.186 49.891Z" fill="#7EC971"/>
<path d="M153.127 65.5824C150.339 62.8996 146.532 62.2207 142.822 62.3631C142.87 62.45 142.896 62.5479 142.898 62.6478C142.917 62.7343 142.917 62.824 142.898 62.9106V62.9763C146.434 62.8449 150.068 63.4471 152.726 66.0094C154.728 68.074 156.085 70.6856 156.631 73.5211H157.304C156.719 70.5167 155.266 67.7543 153.127 65.5824Z" fill="#378729"/>
<path d="M160.504 67.5863C160.106 68.1557 159.745 68.7397 159.419 69.3383C159.593 67.1483 159.777 65.0678 160.016 62.9325C160.46 61.4219 161.041 59.9557 161.752 58.5525C162.75 56.5419 164.107 54.7341 165.755 53.2199C167.817 51.5417 170.177 50.2746 172.708 49.4859C172.518 49.3792 172.333 49.2623 172.155 49.1355L171.981 49.0479C167.642 50.7452 164.106 53.0666 161.676 57.2933C161.182 58.1581 160.743 59.0542 160.363 59.976C160.548 58.5744 160.743 57.1619 160.971 55.7712C162.055 49.2012 163.835 42.6312 167.946 37.4081C167.862 37.1495 167.793 36.8863 167.74 36.6197C163.477 41.8757 161.524 48.4566 160.417 55.0704C159.983 57.6546 159.636 60.2607 159.333 62.8778C159.73 50.9788 159.665 39.0761 159.137 27.1698C158.913 27.0971 158.692 27.0131 158.476 26.918C158.96 37.6709 159.058 48.4311 158.768 59.1986C158.624 59.2263 158.496 59.3086 158.41 59.4285C158.215 57.6984 157.955 55.9793 157.597 54.282C156.187 47.5259 153.182 39.0396 146.369 36.116L146.282 36.2693L146.098 36.7182C153.062 39.7514 155.861 48.6866 157.195 55.607C157.632 58.0318 157.914 60.4823 158.042 62.9435C157.854 65.3744 157.72 67.8053 157.64 70.2362C157.069 66.5239 156.034 62.8997 154.559 59.4504C152.791 55.4865 149.363 49.902 144.633 49.4531C144.183 49.7183 143.711 49.9454 143.223 50.132C149.092 49.2888 153.084 57.14 154.787 61.7171C156.13 65.5432 157.04 69.5104 157.499 73.5431H157.575C157.469 81.5972 157.944 89.6485 158.996 97.6331C159.083 98.3229 160.168 98.3339 160.081 97.6331C159.028 89.6485 158.553 81.5972 158.66 73.5431H159.116C159.116 72.6999 159.213 71.8568 159.278 71.0136C159.64 70.2622 160.042 69.5312 160.482 68.8236C161.746 66.6458 163.505 64.8029 165.614 63.4472C167.112 62.6203 168.736 62.0504 170.419 61.7609C170.453 61.5021 170.546 61.2548 170.691 61.0382C168.98 61.3128 167.32 61.8443 165.765 62.615C163.64 63.8199 161.835 65.5254 160.504 67.5863Z" fill="#378729"/>
<path d="M158.195 100.875C162.992 100.733 166.779 97.076 166.652 92.7055C166.526 88.3351 162.535 84.9065 157.738 85.0477C152.941 85.1889 149.155 88.8463 149.281 93.2168C149.407 97.5872 153.398 101.016 158.195 100.875Z" fill="#FFB339"/>
<path d="M156.837 100.863C150.925 96.987 154.342 88.1175 160.591 85.4676C159.657 85.1996 158.687 85.0777 157.716 85.1063C152.921 85.2486 149.135 88.9059 149.254 93.275C149.385 97.2279 152.672 100.403 156.837 100.863Z" fill="#FFA522"/>
<path d="M223.977 77.8245C234.662 83.9017 258.485 97.8521 267.521 103.152C268.524 103.741 269.29 104.666 269.687 105.767C270.083 106.867 270.085 108.073 269.691 109.174L269.518 109.656C269.276 110.339 268.888 110.96 268.381 111.475C267.875 111.99 267.263 112.387 266.588 112.636C265.913 112.886 265.192 112.983 264.476 112.92C263.76 112.858 263.067 112.637 262.445 112.273L218.813 86.8254C217.768 86.2161 216.969 85.2529 216.56 84.1064C216.151 82.9599 216.158 81.7042 216.578 80.562C216.838 79.8525 217.247 79.2084 217.778 78.6743C218.308 78.1402 218.948 77.7287 219.651 77.4684C220.355 77.2081 221.106 77.1051 221.853 77.1666C222.6 77.2281 223.324 77.4525 223.977 77.8245Z" fill="white"/>
<path d="M230.265 87.1527C230.487 85.8659 229.797 84.6692 228.723 84.4798C227.649 84.2904 226.597 85.18 226.375 86.4667C226.152 87.7535 226.842 88.9502 227.916 89.1396C228.991 89.329 230.042 88.4395 230.265 87.1527Z" fill="#33BDD3"/>
<path d="M235.683 90.3725C235.906 89.0857 235.216 87.889 234.142 87.6996C233.067 87.5101 232.016 88.3997 231.793 89.6865C231.571 90.9733 232.261 92.17 233.335 92.3594C234.409 92.5488 235.461 91.6593 235.683 90.3725Z" fill="#33BDD3"/>
<path d="M241.116 93.6053C241.339 92.3186 240.649 91.1219 239.575 90.9324C238.5 90.743 237.449 91.6326 237.226 92.9194C237.004 94.2062 237.694 95.4029 238.768 95.5923C239.842 95.7817 240.893 94.8921 241.116 93.6053Z" fill="#33BDD3"/>
<path d="M246.795 96.9593C247.018 95.6726 246.327 94.4759 245.253 94.2865C244.179 94.097 243.128 94.9866 242.905 96.2734C242.682 97.5601 243.372 98.7568 244.447 98.9462C245.521 99.1356 246.572 98.2461 246.795 96.9593Z" fill="#33BDD3"/>
<path d="M252.474 100.347C252.697 99.0599 252.007 97.8632 250.933 97.6738C249.858 97.4843 248.807 98.3739 248.584 99.6607C248.362 100.947 249.052 102.144 250.126 102.334C251.2 102.523 252.252 101.633 252.474 100.347Z" fill="#33BDD3"/>
<path d="M258.117 103.623C258.34 102.336 257.65 101.14 256.576 100.95C255.502 100.761 254.45 101.651 254.228 102.937C254.005 104.224 254.695 105.421 255.769 105.61C256.843 105.8 257.895 104.91 258.117 103.623Z" fill="#33BDD3"/>
<path d="M259.952 69.5555C261.003 63.485 257.319 57.7641 251.724 56.7774C246.129 55.7908 240.741 59.912 239.691 65.9825C238.64 72.0529 242.324 77.7739 247.919 78.7606C253.514 79.7472 258.901 75.626 259.952 69.5555Z" fill="white"/>
<path d="M253.647 67.1264C254.306 64.8448 253.241 62.5243 251.268 61.9435C249.296 61.3627 247.162 62.7415 246.503 65.0231C245.843 67.3047 246.908 69.6251 248.881 70.2059C250.854 70.7867 252.987 69.408 253.647 67.1264Z" fill="#33BDD3"/>
<path d="M240.184 71.9772C240.184 71.9772 243.688 68.0681 248.483 69.623C250.205 70.1641 251.656 71.3517 252.536 72.941C253.416 74.5302 253.658 76.3997 253.213 78.164C253.213 78.164 249.383 80.6715 244.252 77.277C244.252 77.288 240.824 75.0761 240.184 71.9772Z" fill="#33BDD3"/>
<path d="M215.418 89.8914C216.523 89.7026 217.611 89.4243 218.672 89.0592C219.844 88.5884 215.657 87.7781 215.657 87.7781" fill="#1CA9B7"/>
<path d="M204.982 60.0636C206.322 59.3677 207.815 59.0285 209.321 59.0782C211.361 59.2972 209.061 63.4581 209.061 63.4581" fill="#1CA9B7"/>
<path d="M210.721 59.538L224.172 67.641C224.806 68.0259 225.292 68.6175 225.548 69.3182C225.805 70.0189 225.817 70.7868 225.583 71.4954L220.603 86.6064C219.941 88.5993 218.434 89.8914 216.654 88.7964L202.216 81.0329C201.59 80.6478 201.112 80.061 200.858 79.3675C200.604 78.674 200.589 77.9143 200.816 77.2113L205.969 61.3447C206.12 60.8771 206.374 60.4498 206.711 60.0942C207.048 59.7387 207.459 59.4641 207.915 59.2907C208.371 59.1172 208.86 59.0494 209.346 59.0922C209.831 59.135 210.301 59.2874 210.721 59.538Z" fill="#1CA9B7"/>
<path d="M207.954 60.2497L221.406 68.3527C222.042 68.736 222.53 69.3269 222.788 70.0277C223.047 70.7285 223.06 71.4973 222.827 72.2071L217.848 87.3182C217.186 89.3111 215.678 90.6032 213.899 89.5082L199.46 81.7446C198.835 81.3595 198.357 80.7728 198.103 80.0793C197.849 79.3858 197.834 78.6261 198.061 77.9231L203.214 62.0565C203.365 61.5904 203.619 61.1646 203.955 60.8102C204.291 60.4558 204.701 60.182 205.156 60.0087C205.611 59.8354 206.098 59.7671 206.582 59.8088C207.067 59.8505 207.535 60.0012 207.954 60.2497Z" fill="#33BDD3"/>
<path d="M211.079 60.9396C211.079 60.9396 213.248 52.1796 218.781 53.5264C224.313 54.8733 219.866 66.1079 219.866 66.1079C219.866 66.1079 219.866 67.2029 222.393 67.6081C222.393 67.6081 227.817 54.4681 220.484 50.997C213.151 47.5258 208.974 57.7969 208.551 59.6694C208.792 60.1172 209.164 60.4792 209.616 60.7064C210.069 60.9337 210.579 61.015 211.079 60.9396Z" fill="#EBEDED"/>
<path d="M211.32 74.7284C213.265 74.4507 214.598 72.4832 214.297 70.3338C213.996 68.1844 212.175 66.6672 210.229 66.9449C208.284 67.2226 206.951 69.1901 207.252 71.3395C207.553 73.4888 209.374 75.0061 211.32 74.7284Z" fill="#EBEDED"/>
<path d="M211.617 69.4543L210.961 69.2244C210.259 68.9784 209.493 69.3533 209.249 70.0617L206.039 79.392C205.796 80.1004 206.167 80.8741 206.869 81.1201L207.525 81.35C208.227 81.596 208.993 81.2212 209.237 80.5128L212.447 71.1824C212.69 70.474 212.319 69.7003 211.617 69.4543Z" fill="#EBEDED"/>
<path d="M139.621 187.85L138.461 186.963L139.491 173.068L145.545 173.287C145.545 173.287 145.241 179.222 146.532 180.678C147.823 182.134 151.468 181.422 151.804 181.565C152.14 181.707 154.57 181.182 155.557 182.375C156.545 183.569 151.62 186.416 149.049 186.821C147.318 187.046 145.564 186.987 143.852 186.646C143.852 186.646 143.57 183.054 142.681 183.361C141.791 183.667 141.455 187.401 141.455 187.401L139.621 187.85Z" fill="#9C4100"/>
<path d="M137.137 144.116C136.638 158.646 136.107 177.579 136.107 177.579C136.107 177.579 139.361 182.09 148.311 180.163C149.265 179.955 151.392 156.796 152.433 144.751C147.447 143.377 142.218 143.159 137.137 144.116Z" fill="#7EC971"/>
<path d="M155.405 199.786L154.245 198.899L155.275 185.003L161.328 185.222C161.328 185.222 161.025 191.157 162.316 192.613C163.607 194.07 167.252 193.358 167.588 193.5C167.924 193.643 170.354 193.117 171.341 194.311C172.329 195.504 167.403 198.351 164.832 198.756C163.102 198.982 161.347 198.923 159.636 198.581C159.636 198.581 159.354 194.989 158.465 195.296C157.575 195.603 157.239 199.337 157.239 199.337L155.405 199.786Z" fill="#053855"/>
<path d="M158.009 146.755C154.029 144.934 149.754 143.858 145.392 143.579C146.13 149.054 146.814 152.788 146.933 153.062C147.226 153.752 152.769 188.277 152.769 188.277C159.278 190.938 167.045 188.715 167.045 188.715C167.045 188.715 164.377 161.778 164.16 157.278C164.16 156.796 164.135 156.31 164.084 155.821C163.986 153.895 163.368 152.032 162.297 150.434C161.226 148.836 159.744 147.564 158.009 146.755Z" fill="#7EC971"/>
<path d="M117.784 154.781C117.784 154.781 128.871 144.652 137.137 144.116C145.404 143.579 157.152 152.23 156.23 157.256C155.308 162.282 139.48 173.079 139.48 173.079" fill="#7EC971"/>
<path d="M140.457 136.703L131.626 130.395C131.271 130.142 131.014 129.772 130.899 129.349C130.785 128.925 130.819 128.475 130.997 128.074L137.256 114.025C137.366 113.779 137.527 113.559 137.727 113.381C137.928 113.203 138.164 113.069 138.42 112.991C138.676 112.912 138.945 112.889 139.21 112.924C139.476 112.959 139.73 113.051 139.958 113.193L149.829 119.402C150.231 119.654 150.524 120.05 150.649 120.511C150.774 120.972 150.721 121.464 150.502 121.887L143.201 136.024C143.078 136.264 142.906 136.474 142.695 136.641C142.485 136.808 142.242 136.928 141.982 136.992C141.722 137.056 141.451 137.064 141.188 137.014C140.925 136.964 140.676 136.858 140.457 136.703Z" fill="#1784AA"/>
<path d="M139.665 136.21L130.802 129.903C130.447 129.649 130.19 129.279 130.075 128.856C129.961 128.432 129.995 127.982 130.173 127.581L136.432 113.532C136.542 113.286 136.703 113.067 136.903 112.888C137.104 112.71 137.34 112.577 137.596 112.498C137.852 112.419 138.121 112.396 138.386 112.431C138.652 112.466 138.906 112.558 139.133 112.7L149.005 118.909C149.407 119.161 149.7 119.558 149.825 120.019C149.95 120.479 149.897 120.971 149.678 121.395L142.377 135.531C142.253 135.766 142.082 135.972 141.874 136.136C141.667 136.3 141.427 136.417 141.171 136.481C140.915 136.545 140.649 136.554 140.389 136.508C140.13 136.461 139.883 136.359 139.665 136.21Z" fill="#29ABE2"/>
<path d="M141.14 135.345L131.203 128.26L137.723 113.631L148.766 120.573L141.14 135.345Z" fill="#E4F5FD"/>
<path d="M136.541 119.84C133.286 121.657 128.112 123.727 124.608 126.136C124.054 126.519 123.23 127.855 123.772 127.658C123.534 127.932 125.801 128.83 125.584 129.125C125.519 129.224 127.048 128.37 127.135 128.403C128.436 129.101 129.949 129.284 131.377 128.917L131.952 128.49L132.093 128.403C132.117 128.359 132.15 128.322 132.19 128.293L132.277 128.227C132.293 128.144 132.34 128.07 132.407 128.019C133.167 127.417 134.837 127.1 135.011 126.081C134.981 125.813 134.9 125.552 134.772 125.315C134.732 125.253 134.717 125.178 134.729 125.105C134.741 125.032 134.78 124.966 134.837 124.92C134.901 124.617 134.904 124.304 134.846 123.999C134.789 123.695 134.671 123.405 134.501 123.147L134.696 122.917C135.62 122.269 136.494 121.552 137.311 120.77C137.4 120.687 137.458 120.575 137.474 120.453V120.398C137.477 120.365 137.477 120.332 137.474 120.3C137.461 120.196 137.423 120.098 137.364 120.013C137.304 119.928 137.224 119.859 137.131 119.814C137.038 119.768 136.936 119.746 136.832 119.751C136.729 119.755 136.629 119.786 136.541 119.84Z" fill="#E4CAA2"/>
<path d="M134.87 123.431C134.621 122.796 134.263 122.763 133.688 123.015C132.546 123.537 131.456 124.168 130.433 124.898C130.26 125.019 130.433 125.293 130.607 125.183C131.247 124.745 134.024 122.676 134.588 123.584C135.152 124.493 133.286 125.117 132.765 125.391L130.769 126.486C130.585 126.585 130.769 126.87 130.943 126.771L132.223 126.103C132.213 126.135 132.213 126.169 132.223 126.202C132.331 126.346 132.459 126.475 132.603 126.585C132.488 126.75 132.415 126.942 132.391 127.142C132.366 127.342 132.39 127.546 132.462 127.735L132.516 127.8C131.966 128.378 131.24 128.755 130.454 128.87C129.668 128.985 128.867 128.832 128.177 128.435C128.014 128.315 127.786 128.545 127.949 128.676C129.251 129.662 131.941 129.377 132.852 127.921C133.057 127.893 133.255 127.83 133.438 127.735C134.03 127.528 134.562 127.178 134.989 126.716C135.107 126.516 135.169 126.287 135.169 126.054C135.169 125.821 135.107 125.592 134.989 125.391V125.336C135.068 125.26 135.131 125.168 135.174 125.066C135.216 124.965 135.238 124.856 135.238 124.745C135.238 124.635 135.216 124.526 135.174 124.424C135.131 124.322 135.068 124.23 134.989 124.154C135.022 123.906 134.981 123.655 134.87 123.431ZM134.729 126.41C134.513 126.712 134.221 126.95 133.883 127.099C133.677 127.22 133.156 127.592 132.95 127.537C132.527 127.428 132.787 126.87 132.95 126.629C133.183 126.537 133.399 126.408 133.59 126.245L134.382 125.742L134.642 125.545C134.719 125.673 134.767 125.818 134.782 125.967C134.797 126.117 134.779 126.268 134.729 126.41ZM133.709 125.796C133.254 126.081 132.885 126.442 132.462 125.928C133.102 125.599 133.742 125.271 134.338 124.888C134.522 124.78 134.681 124.634 134.805 124.46C135.141 125.041 134.056 125.577 133.709 125.796Z" fill="#A77A4E"/>
<path d="M126.712 123.628C126.712 123.628 128.882 124.132 129.099 128.83L127.439 133.001L118.402 128.271C118.402 128.271 120.561 125.534 126.712 123.628Z" fill="#88D3D8"/>
<path d="M148.159 125.829C147.486 127.329 146.814 128.687 146.25 130.209C145.837 129.191 145.458 128.359 144.948 127.384C144.925 127.349 144.9 127.316 144.872 127.286C144.78 127.135 144.64 127.02 144.474 126.959C144.309 126.898 144.129 126.895 143.962 126.951C143.795 127.007 143.652 127.118 143.555 127.266C143.458 127.414 143.414 127.591 143.429 127.767C143.596 128.699 143.966 129.582 144.514 130.352C144.437 130.391 144.368 130.443 144.308 130.505C143.006 131.961 143.321 134.195 143.472 135.98C143.478 136.099 143.515 136.214 143.578 136.314C143.641 136.414 143.728 136.496 143.832 136.553C143.935 136.609 144.052 136.637 144.169 136.634C144.287 136.632 144.402 136.599 144.503 136.538C144.624 136.54 144.744 136.51 144.85 136.451C146.02 135.638 146.856 134.424 147.204 133.034C147.931 130.768 148.886 128.249 148.159 125.829Z" fill="#E4CAA2"/>
<path d="M114.4 125.709L117.654 124.723C118.468 124.844 125.53 127.756 128.502 132.837C128.857 134.386 129.097 135.96 129.218 137.546C129.489 139.659 129.706 141.783 129.804 143.908C129.94 146.225 129.904 148.549 129.696 150.861C129.598 151.847 129.533 152.35 129.359 153.325C128.98 153.657 128.547 153.92 128.079 154.102C118.316 157.53 111.091 151.978 110.798 151.168C110.505 150.357 110.039 138.969 109.8 132.18C109.759 130.742 110.187 129.33 111.018 128.161C111.849 126.992 113.037 126.13 114.4 125.709Z" fill="#88D3D8"/>
<path d="M123.045 113.959C123.045 113.959 125.215 125.129 121.169 126.333C117.122 127.538 112.295 122.884 111.948 120.584C111.601 118.285 117.328 110.236 123.045 113.959Z" fill="#E4CAA2"/>
<path d="M121.461 118.427C121.581 118.241 123.935 117.617 124.423 115.624C124.911 113.631 123.132 111.014 119.053 110.642C114.974 110.269 108.129 112.514 109.181 123.355C110.234 134.195 121.038 129.53 121.744 126.07C122.118 123.527 122.023 120.935 121.461 118.427Z" fill="#653200"/>
<path d="M121.461 118.427C121.461 118.427 122.145 122.128 123.631 123.727C125.117 125.326 126.321 128.216 124.499 130.428C122.676 132.64 124.499 133.834 127.07 135.903C129.641 137.973 128.057 146.612 118.76 144.499C109.463 142.386 105.081 136.725 105.081 136.725C105.081 136.725 107.467 119.84 110.006 115.92" fill="#653200"/>
<path d="M128.502 133.002C128.502 133.002 130.606 140.119 132.711 140.338C134.816 140.557 138.005 137.414 140.251 133.308C141.054 133.224 141.867 133.307 142.638 133.552C143.408 133.798 144.121 134.2 144.731 134.735C145.342 135.27 145.837 135.926 146.185 136.662C146.534 137.398 146.73 138.198 146.76 139.013C146.76 139.013 139.35 154.168 128.545 150.467" fill="#88D3D8"/>
<path d="M143.463 125.456C144.333 123.202 143.482 120.762 141.561 120.007C139.641 119.252 137.379 120.467 136.509 122.721C135.639 124.974 136.49 127.414 138.41 128.169C140.331 128.925 142.593 127.71 143.463 125.456Z" fill="#1784AA"/>
<path d="M137.463 122.96L138.624 122.599L139.112 124.263L142.909 122.895L143.082 124.066L138.461 125.775L137.463 122.96Z" fill="#E4F5FD"/>
<path d="M89.6982 187.281C83.0591 178.926 80.0108 168.228 80.141 157.53C80.2313 148.855 83.6084 140.545 89.5789 134.305C95.0572 128.633 103.324 125.84 110.657 129.684C116.743 132.87 119.693 138.991 121.809 145.266C124.347 152.777 125.204 162.402 134.273 164.724C137.788 165.622 141.487 165.008 145.122 164.724C151.435 164.286 158.139 166.355 160.049 173.144C163.564 185.299 147.367 195.679 138.266 199.599C130.383 202.871 121.703 203.649 113.373 201.831C105.043 200.012 97.4566 195.683 91.6183 189.416C90.9313 188.737 90.2912 188.025 89.6982 187.281Z" fill="#FFDE47"/>
<path d="M159.68 173.33C153.236 185.091 132.266 190.39 120.833 189.755C110.451 189.219 103.888 182.824 104.56 172.235C104.951 166.41 106.73 160.606 106.263 154.715C105.385 144.729 95.9902 136.527 86.4004 138.477C82.2916 144.217 80.0513 151.105 79.9891 158.187C79.8589 168.885 82.8964 179.572 89.5464 187.938C90.1394 188.668 90.7577 189.398 91.4014 190.128C97.2397 196.395 104.826 200.724 113.156 202.542C121.486 204.361 130.166 203.583 138.049 200.311C147.161 196.391 163.347 186.01 159.832 173.856C159.81 173.67 159.734 173.506 159.68 173.33Z" fill="#FCC62D"/>
<path d="M63.619 43.2006L64.4435 89.092C64.4537 89.5783 64.5855 90.0542 64.8264 90.4756C65.0674 90.8969 65.4098 91.25 65.8219 91.5023C66.2341 91.7545 66.7026 91.8977 67.1841 91.9185C67.6657 91.9393 68.1446 91.8371 68.5766 91.6214L107.207 72.1961C107.848 71.8733 108.384 71.3737 108.755 70.7555C109.125 70.1372 109.315 69.4256 109.301 68.7031L108.476 22.7898C108.472 22.2582 108.334 21.7365 108.074 21.274C107.814 20.8116 107.442 20.4238 106.992 20.1474C106.542 19.871 106.03 19.7152 105.504 19.6947C104.977 19.6742 104.455 19.7898 103.985 20.0304L65.7127 39.7404C65.0773 40.0608 64.544 40.5552 64.1737 41.1671C63.8035 41.779 63.6113 42.4836 63.619 43.2006Z" fill="#1D377D"/>
<path opacity="0.3" d="M102.597 50.1539C95.2415 52.2563 97.7908 60.5454 92.5078 64.9254C86.0748 70.2581 83.6448 55.0704 75.7473 56.0778C66.2768 57.1728 64.4435 89.1468 64.4435 89.1468C65.9405 92.7713 68.5766 91.6763 68.5766 91.6763L109.355 71.1669L109.04 53.5046C107.326 51.446 105.211 49.8911 102.597 50.1539Z" fill="#336E91"/>
</g>
<defs>
<filter id="filter0_d_6_27" x="0" y="0" width="359.637" height="291.62" filterUnits="userSpaceOnUse" color-interpolation-filters="sRGB">
<feFlood flood-opacity="0" result="BackgroundImageFix"/>
<feColorMatrix in="SourceAlpha" type="matrix" values="0 0 0 0 0 0 0 0 0 0 0 0 0 0 0 0 0 0 127 0" result="hardAlpha"/>
<feOffset dy="14"/>
<feGaussianBlur stdDeviation="10"/>
<feColorMatrix type="matrix" values="0 0 0 0 0 0 0 0 0 0 0 0 0 0 0 0 0 0 0.2 0"/>
<feBlend mode="normal" in2="BackgroundImageFix" result="effect1_dropShadow_6_27"/>
<feBlend mode="normal" in="SourceGraphic" in2="effect1_dropShadow_6_27" result="shape"/>
</filter>
<linearGradient id="paint0_linear_6_27" x1="157.521" y1="198.636" x2="178.3" y2="165.862" gradientUnits="userSpaceOnUse">
<stop stop-color="#FF8E31"/>
<stop offset="1" stop-color="#ED6B21"/>
</linearGradient>
<linearGradient id="paint1_linear_6_27" x1="9931.46" y1="12284.2" x2="10880.1" y2="10514.2" gradientUnits="userSpaceOnUse">
<stop stop-color="#FF8E31"/>
<stop offset="1" stop-color="#ED6B21"/>
</linearGradient>
</defs>
</svg>
